<svg width="235" height="16" viewBox="0 0 235 16" fill="none" xmlns="http://www.w3.org/2000/svg">
<rect width="200" height="16" fill="#EDEDED"/>
<path d="M0 0H27V16H0V0Z" fill="#01959F"/>
<path d="M215.972 3.27273V12H214.915V4.38068H214.864L212.733 5.79545V4.72159L214.915 3.27273H215.972ZM221.328 12.1193C220.686 12.1193 220.139 11.9446 219.688 11.5952C219.236 11.2429 218.891 10.733 218.652 10.0653C218.413 9.39489 218.294 8.58523 218.294 7.63636C218.294 6.69318 218.413 5.88778 218.652 5.22017C218.893 4.54972 219.24 4.03835 219.692 3.68608C220.146 3.33097 220.692 3.15341 221.328 3.15341C221.964 3.15341 222.509 3.33097 222.96 3.68608C223.415 4.03835 223.761 4.54972 224 5.22017C224.241 5.88778 224.362 6.69318 224.362 7.63636C224.362 8.58523 224.243 9.39489 224.004 10.0653C223.766 10.733 223.42 11.2429 222.969 11.5952C222.517 11.9446 221.97 12.1193 221.328 12.1193ZM221.328 11.1818C221.964 11.1818 222.459 10.875 222.811 10.2614C223.163 9.64773 223.339 8.77273 223.339 7.63636C223.339 6.88068 223.259 6.23722 223.097 5.70597C222.938 5.17472 222.707 4.76989 222.406 4.49148C222.108 4.21307 221.749 4.07386 221.328 4.07386C220.697 4.07386 220.205 4.38494 219.849 5.0071C219.494 5.62642 219.317 6.50284 219.317 7.63636C219.317 8.39205 219.396 9.03409 219.555 9.5625C219.714 10.0909 219.943 10.4929 220.241 10.7685C220.543 11.044 220.905 11.1818 221.328 11.1818ZM230.43 10.3636V9.90341C230.43 9.58523 230.496 9.29403 230.626 9.02983C230.76 8.76278 230.953 8.54972 231.206 8.39062C231.462 8.22869 231.771 8.14773 232.135 8.14773C232.504 8.14773 232.814 8.22869 233.064 8.39062C233.314 8.54972 233.503 8.76278 233.631 9.02983C233.759 9.29403 233.822 9.58523 233.822 9.90341V10.3636C233.822 10.6818 233.757 10.9744 233.626 11.2415C233.499 11.5057 233.308 11.7187 233.055 11.8807C232.805 12.0398 232.499 12.1193 232.135 12.1193C231.766 12.1193 231.455 12.0398 231.202 11.8807C230.949 11.7187 230.757 11.5057 230.626 11.2415C230.496 10.9744 230.43 10.6818 230.43 10.3636ZM231.3 9.90341V10.3636C231.3 10.6278 231.362 10.8651 231.487 11.0753C231.612 11.2827 231.828 11.3864 232.135 11.3864C232.433 11.3864 232.643 11.2827 232.766 11.0753C232.891 10.8651 232.953 10.6278 232.953 10.3636V9.90341C232.953 9.6392 232.893 9.40341 232.774 9.19602C232.655 8.9858 232.442 8.88068 232.135 8.88068C231.837 8.88068 231.622 8.9858 231.491 9.19602C231.364 9.40341 231.3 9.6392 231.3 9.90341ZM226.084 5.36932V4.90909C226.084 4.59091 226.149 4.29972 226.28 4.03551C226.413 3.76847 226.607 3.5554 226.859 3.39631C227.115 3.23437 227.425 3.15341 227.788 3.15341C228.158 3.15341 228.467 3.23437 228.717 3.39631C228.967 3.5554 229.156 3.76847 229.284 4.03551C229.412 4.29972 229.476 4.59091 229.476 4.90909V5.36932C229.476 5.6875 229.411 5.98011 229.28 6.24716C229.152 6.51136 228.962 6.72443 228.709 6.88636C228.459 7.04545 228.152 7.125 227.788 7.125C227.419 7.125 227.108 7.04545 226.855 6.88636C226.602 6.72443 226.411 6.51136 226.28 6.24716C226.149 5.98011 226.084 5.6875 226.084 5.36932ZM226.953 4.90909V5.36932C226.953 5.63352 227.016 5.87074 227.141 6.08097C227.266 6.28835 227.482 6.39205 227.788 6.39205C228.087 6.39205 228.297 6.28835 228.419 6.08097C228.544 5.87074 228.607 5.63352 228.607 5.36932V4.90909C228.607 4.64489 228.547 4.40909 228.428 4.2017C228.308 3.99148 228.095 3.88636 227.788 3.88636C227.49 3.88636 227.276 3.99148 227.145 4.2017C227.017 4.40909 226.953 4.64489 226.953 4.90909ZM226.408 12L232.408 3.27273H233.379L227.379 12H226.408Z" fill="#757575"/>
</svg>
