<svg width="237" height="16" viewBox="0 0 237 16" fill="none" xmlns="http://www.w3.org/2000/svg">
<rect width="200" height="16" fill="#EDEDED"/>
<path d="M0 0H61V16H0V0Z" fill="#01959F"/>
<path d="M215.852 12.1193C215.29 12.1193 214.788 12.0227 214.348 11.8295C213.911 11.6364 213.563 11.3679 213.304 11.0241C213.048 10.6776 212.909 10.2756 212.886 9.81818H213.96C213.983 10.0994 214.08 10.3423 214.25 10.5469C214.42 10.7486 214.643 10.9048 214.919 11.0156C215.195 11.1264 215.5 11.1818 215.835 11.1818C216.21 11.1818 216.543 11.1165 216.832 10.9858C217.122 10.8551 217.349 10.6733 217.514 10.4403C217.679 10.2074 217.761 9.9375 217.761 9.63068C217.761 9.30966 217.682 9.02699 217.523 8.78267C217.364 8.53551 217.131 8.34233 216.824 8.20312C216.517 8.06392 216.142 7.99432 215.699 7.99432H215V7.05682H215.699C216.045 7.05682 216.349 6.99432 216.611 6.86932C216.875 6.74432 217.081 6.56818 217.229 6.34091C217.379 6.11364 217.455 5.84659 217.455 5.53977C217.455 5.24432 217.389 4.98722 217.259 4.76847C217.128 4.54972 216.943 4.37926 216.705 4.2571C216.469 4.13494 216.19 4.07386 215.869 4.07386C215.568 4.07386 215.284 4.12926 215.017 4.24006C214.753 4.34801 214.537 4.50568 214.369 4.71307C214.202 4.91761 214.111 5.16477 214.097 5.45455H213.074C213.091 4.99716 213.229 4.59659 213.487 4.25284C213.746 3.90625 214.084 3.63636 214.501 3.44318C214.922 3.25 215.384 3.15341 215.886 3.15341C216.426 3.15341 216.889 3.26278 217.276 3.48153C217.662 3.69744 217.959 3.98295 218.166 4.33807C218.374 4.69318 218.477 5.0767 218.477 5.48864C218.477 5.98011 218.348 6.39915 218.089 6.74574C217.834 7.09233 217.486 7.33239 217.045 7.46591V7.53409C217.597 7.625 218.027 7.85937 218.337 8.23722C218.646 8.61222 218.801 9.0767 218.801 9.63068C218.801 10.1051 218.672 10.5312 218.413 10.9091C218.158 11.2841 217.808 11.5795 217.365 11.7955C216.922 12.0114 216.418 12.1193 215.852 12.1193ZM223.391 12.1193C222.749 12.1193 222.202 11.9446 221.75 11.5952C221.298 11.2429 220.953 10.733 220.714 10.0653C220.476 9.39489 220.357 8.58523 220.357 7.63636C220.357 6.69318 220.476 5.88778 220.714 5.22017C220.956 4.54972 221.303 4.03835 221.754 3.68608C222.209 3.33097 222.754 3.15341 223.391 3.15341C224.027 3.15341 224.571 3.33097 225.023 3.68608C225.477 4.03835 225.824 4.54972 226.062 5.22017C226.304 5.88778 226.425 6.69318 226.425 7.63636C226.425 8.58523 226.305 9.39489 226.067 10.0653C225.828 10.733 225.483 11.2429 225.031 11.5952C224.58 11.9446 224.033 12.1193 223.391 12.1193ZM223.391 11.1818C224.027 11.1818 224.521 10.875 224.874 10.2614C225.226 9.64773 225.402 8.77273 225.402 7.63636C225.402 6.88068 225.321 6.23722 225.159 5.70597C225 5.17472 224.77 4.76989 224.469 4.49148C224.17 4.21307 223.811 4.07386 223.391 4.07386C222.76 4.07386 222.267 4.38494 221.912 5.0071C221.557 5.62642 221.379 6.50284 221.379 7.63636C221.379 8.39205 221.459 9.03409 221.618 9.5625C221.777 10.0909 222.006 10.4929 222.304 10.7685C222.605 11.044 222.967 11.1818 223.391 11.1818ZM232.493 10.3636V9.90341C232.493 9.58523 232.558 9.29403 232.689 9.02983C232.822 8.76278 233.016 8.54972 233.268 8.39062C233.524 8.22869 233.834 8.14773 234.197 8.14773C234.567 8.14773 234.876 8.22869 235.126 8.39062C235.376 8.54972 235.565 8.76278 235.693 9.02983C235.821 9.29403 235.885 9.58523 235.885 9.90341V10.3636C235.885 10.6818 235.82 10.9744 235.689 11.2415C235.561 11.5057 235.371 11.7187 235.118 11.8807C234.868 12.0398 234.561 12.1193 234.197 12.1193C233.828 12.1193 233.517 12.0398 233.264 11.8807C233.011 11.7187 232.82 11.5057 232.689 11.2415C232.558 10.9744 232.493 10.6818 232.493 10.3636ZM233.362 9.90341V10.3636C233.362 10.6278 233.425 10.8651 233.55 11.0753C233.675 11.2827 233.891 11.3864 234.197 11.3864C234.496 11.3864 234.706 11.2827 234.828 11.0753C234.953 10.8651 235.016 10.6278 235.016 10.3636V9.90341C235.016 9.6392 234.956 9.40341 234.837 9.19602C234.717 8.9858 234.504 8.88068 234.197 8.88068C233.899 8.88068 233.685 8.9858 233.554 9.19602C233.426 9.40341 233.362 9.6392 233.362 9.90341ZM228.146 5.36932V4.90909C228.146 4.59091 228.212 4.29972 228.342 4.03551C228.476 3.76847 228.669 3.5554 228.922 3.39631C229.178 3.23437 229.487 3.15341 229.851 3.15341C230.22 3.15341 230.53 3.23437 230.78 3.39631C231.03 3.5554 231.219 3.76847 231.347 4.03551C231.474 4.29972 231.538 4.59091 231.538 4.90909V5.36932C231.538 5.6875 231.473 5.98011 231.342 6.24716C231.214 6.51136 231.024 6.72443 230.771 6.88636C230.521 7.04545 230.214 7.125 229.851 7.125C229.482 7.125 229.17 7.04545 228.918 6.88636C228.665 6.72443 228.473 6.51136 228.342 6.24716C228.212 5.98011 228.146 5.6875 228.146 5.36932ZM229.016 4.90909V5.36932C229.016 5.63352 229.078 5.87074 229.203 6.08097C229.328 6.28835 229.544 6.39205 229.851 6.39205C230.149 6.39205 230.359 6.28835 230.482 6.08097C230.607 5.87074 230.669 5.63352 230.669 5.36932V4.90909C230.669 4.64489 230.609 4.40909 230.49 4.2017C230.371 3.99148 230.158 3.88636 229.851 3.88636C229.553 3.88636 229.338 3.99148 229.207 4.2017C229.08 4.40909 229.016 4.64489 229.016 4.90909ZM228.47 12L234.47 3.27273H235.442L229.442 12H228.47Z" fill="#757575"/>
</svg>
