<svg width="237" height="16" viewBox="0 0 237 16" fill="none" xmlns="http://www.w3.org/2000/svg">
<rect width="200" height="16" fill="#EDEDED"/>
<path d="M0 0H81V16H0V0Z" fill="#01959F"/>
<path d="M212.699 10.2102V9.34091L216.534 3.27273H217.165V4.61932H216.739L213.841 9.20455V9.27273H219.006V10.2102H212.699ZM216.807 12V9.94602V9.54119V3.27273H217.812V12H216.807ZM223.449 12.1193C222.807 12.1193 222.26 11.9446 221.809 11.5952C221.357 11.2429 221.012 10.733 220.773 10.0653C220.534 9.39489 220.415 8.58523 220.415 7.63636C220.415 6.69318 220.534 5.88778 220.773 5.22017C221.015 4.54972 221.361 4.03835 221.813 3.68608C222.267 3.33097 222.813 3.15341 223.449 3.15341C224.086 3.15341 224.63 3.33097 225.081 3.68608C225.536 4.03835 225.882 4.54972 226.121 5.22017C226.363 5.88778 226.483 6.69318 226.483 7.63636C226.483 8.58523 226.364 9.39489 226.125 10.0653C225.887 10.733 225.542 11.2429 225.09 11.5952C224.638 11.9446 224.091 12.1193 223.449 12.1193ZM223.449 11.1818C224.086 11.1818 224.58 10.875 224.932 10.2614C225.284 9.64773 225.461 8.77273 225.461 7.63636C225.461 6.88068 225.38 6.23722 225.218 5.70597C225.059 5.17472 224.828 4.76989 224.527 4.49148C224.229 4.21307 223.87 4.07386 223.449 4.07386C222.819 4.07386 222.326 4.38494 221.971 5.0071C221.615 5.62642 221.438 6.50284 221.438 7.63636C221.438 8.39205 221.517 9.03409 221.676 9.5625C221.836 10.0909 222.064 10.4929 222.363 10.7685C222.664 11.044 223.026 11.1818 223.449 11.1818ZM232.551 10.3636V9.90341C232.551 9.58523 232.617 9.29403 232.748 9.02983C232.881 8.76278 233.074 8.54972 233.327 8.39062C233.583 8.22869 233.892 8.14773 234.256 8.14773C234.625 8.14773 234.935 8.22869 235.185 8.39062C235.435 8.54972 235.624 8.76278 235.752 9.02983C235.88 9.29403 235.944 9.58523 235.944 9.90341V10.3636C235.944 10.6818 235.878 10.9744 235.748 11.2415C235.62 11.5057 235.429 11.7187 235.176 11.8807C234.926 12.0398 234.62 12.1193 234.256 12.1193C233.887 12.1193 233.576 12.0398 233.323 11.8807C233.07 11.7187 232.878 11.5057 232.748 11.2415C232.617 10.9744 232.551 10.6818 232.551 10.3636ZM233.421 9.90341V10.3636C233.421 10.6278 233.483 10.8651 233.608 11.0753C233.733 11.2827 233.949 11.3864 234.256 11.3864C234.554 11.3864 234.765 11.2827 234.887 11.0753C235.012 10.8651 235.074 10.6278 235.074 10.3636V9.90341C235.074 9.6392 235.015 9.40341 234.895 9.19602C234.776 8.9858 234.563 8.88068 234.256 8.88068C233.958 8.88068 233.743 8.9858 233.613 9.19602C233.485 9.40341 233.421 9.6392 233.421 9.90341ZM228.205 5.36932V4.90909C228.205 4.59091 228.27 4.29972 228.401 4.03551C228.534 3.76847 228.728 3.5554 228.98 3.39631C229.236 3.23437 229.546 3.15341 229.909 3.15341C230.279 3.15341 230.588 3.23437 230.838 3.39631C231.088 3.5554 231.277 3.76847 231.405 4.03551C231.533 4.29972 231.597 4.59091 231.597 4.90909V5.36932C231.597 5.6875 231.532 5.98011 231.401 6.24716C231.273 6.51136 231.083 6.72443 230.83 6.88636C230.58 7.04545 230.273 7.125 229.909 7.125C229.54 7.125 229.229 7.04545 228.976 6.88636C228.723 6.72443 228.532 6.51136 228.401 6.24716C228.27 5.98011 228.205 5.6875 228.205 5.36932ZM229.074 4.90909V5.36932C229.074 5.63352 229.137 5.87074 229.262 6.08097C229.387 6.28835 229.603 6.39205 229.909 6.39205C230.208 6.39205 230.418 6.28835 230.54 6.08097C230.665 5.87074 230.728 5.63352 230.728 5.36932V4.90909C230.728 4.64489 230.668 4.40909 230.549 4.2017C230.429 3.99148 230.216 3.88636 229.909 3.88636C229.611 3.88636 229.397 3.99148 229.266 4.2017C229.138 4.40909 229.074 4.64489 229.074 4.90909ZM228.529 12L234.529 3.27273H235.5L229.5 12H228.529Z" fill="#757575"/>
</svg>
