<svg width="237" height="16" viewBox="0 0 237 16" fill="none" xmlns="http://www.w3.org/2000/svg">
<rect width="200" height="16" fill="#EDEDED"/>
<path d="M0 0H121V16H0V0Z" fill="#01959F"/>
<path d="M215.801 12.1193C215.443 12.1136 215.085 12.0455 214.727 11.9148C214.369 11.7841 214.043 11.5639 213.747 11.2543C213.452 10.9418 213.214 10.5199 213.036 9.98864C212.857 9.45455 212.767 8.78409 212.767 7.97727C212.767 7.20455 212.839 6.51989 212.984 5.9233C213.129 5.32386 213.339 4.8196 213.615 4.41051C213.891 3.99858 214.223 3.68608 214.612 3.47301C215.004 3.25994 215.446 3.15341 215.938 3.15341C216.426 3.15341 216.861 3.25142 217.241 3.44744C217.625 3.64062 217.938 3.91051 218.179 4.2571C218.42 4.60369 218.577 5.00284 218.648 5.45455H217.608C217.511 5.0625 217.324 4.73722 217.045 4.47869C216.767 4.22017 216.398 4.09091 215.938 4.09091C215.261 4.09091 214.729 4.38494 214.339 4.97301C213.953 5.56108 213.759 6.38636 213.756 7.44886H213.824C213.983 7.20739 214.172 7.00142 214.391 6.83097C214.612 6.65767 214.857 6.52415 215.124 6.4304C215.391 6.33665 215.673 6.28977 215.972 6.28977C216.472 6.28977 216.929 6.41477 217.344 6.66477C217.759 6.91193 218.091 7.25426 218.341 7.69176C218.591 8.12642 218.716 8.625 218.716 9.1875C218.716 9.72727 218.595 10.2216 218.354 10.6705C218.112 11.1165 217.773 11.4716 217.335 11.7358C216.901 11.9972 216.389 12.125 215.801 12.1193ZM215.801 11.1818C216.159 11.1818 216.48 11.0923 216.764 10.9134C217.051 10.7344 217.277 10.4943 217.442 10.1932C217.609 9.89205 217.693 9.55682 217.693 9.1875C217.693 8.8267 217.612 8.49858 217.45 8.20312C217.291 7.90483 217.071 7.66761 216.79 7.49148C216.511 7.31534 216.193 7.22727 215.835 7.22727C215.565 7.22727 215.314 7.28125 215.081 7.3892C214.848 7.49432 214.643 7.6392 214.467 7.82386C214.294 8.00852 214.158 8.22017 214.058 8.45881C213.959 8.6946 213.909 8.94318 213.909 9.20455C213.909 9.55114 213.99 9.875 214.152 10.1761C214.317 10.4773 214.541 10.7202 214.825 10.9048C215.112 11.0895 215.438 11.1818 215.801 11.1818ZM223.238 12.1193C222.596 12.1193 222.049 11.9446 221.598 11.5952C221.146 11.2429 220.801 10.733 220.562 10.0653C220.324 9.39489 220.204 8.58523 220.204 7.63636C220.204 6.69318 220.324 5.88778 220.562 5.22017C220.804 4.54972 221.15 4.03835 221.602 3.68608C222.056 3.33097 222.602 3.15341 223.238 3.15341C223.875 3.15341 224.419 3.33097 224.87 3.68608C225.325 4.03835 225.672 4.54972 225.91 5.22017C226.152 5.88778 226.272 6.69318 226.272 7.63636C226.272 8.58523 226.153 9.39489 225.914 10.0653C225.676 10.733 225.331 11.2429 224.879 11.5952C224.427 11.9446 223.88 12.1193 223.238 12.1193ZM223.238 11.1818C223.875 11.1818 224.369 10.875 224.721 10.2614C225.074 9.64773 225.25 8.77273 225.25 7.63636C225.25 6.88068 225.169 6.23722 225.007 5.70597C224.848 5.17472 224.618 4.76989 224.316 4.49148C224.018 4.21307 223.659 4.07386 223.238 4.07386C222.608 4.07386 222.115 4.38494 221.76 5.0071C221.404 5.62642 221.227 6.50284 221.227 7.63636C221.227 8.39205 221.306 9.03409 221.466 9.5625C221.625 10.0909 221.853 10.4929 222.152 10.7685C222.453 11.044 222.815 11.1818 223.238 11.1818ZM232.341 10.3636V9.90341C232.341 9.58523 232.406 9.29403 232.537 9.02983C232.67 8.76278 232.863 8.54972 233.116 8.39062C233.372 8.22869 233.681 8.14773 234.045 8.14773C234.414 8.14773 234.724 8.22869 234.974 8.39062C235.224 8.54972 235.413 8.76278 235.541 9.02983C235.669 9.29403 235.733 9.58523 235.733 9.90341V10.3636C235.733 10.6818 235.667 10.9744 235.537 11.2415C235.409 11.5057 235.218 11.7187 234.966 11.8807C234.716 12.0398 234.409 12.1193 234.045 12.1193C233.676 12.1193 233.365 12.0398 233.112 11.8807C232.859 11.7187 232.667 11.5057 232.537 11.2415C232.406 10.9744 232.341 10.6818 232.341 10.3636ZM233.21 9.90341V10.3636C233.21 10.6278 233.272 10.8651 233.397 11.0753C233.522 11.2827 233.738 11.3864 234.045 11.3864C234.343 11.3864 234.554 11.2827 234.676 11.0753C234.801 10.8651 234.863 10.6278 234.863 10.3636V9.90341C234.863 9.6392 234.804 9.40341 234.684 9.19602C234.565 8.9858 234.352 8.88068 234.045 8.88068C233.747 8.88068 233.532 8.9858 233.402 9.19602C233.274 9.40341 233.21 9.6392 233.21 9.90341ZM227.994 5.36932V4.90909C227.994 4.59091 228.059 4.29972 228.19 4.03551C228.324 3.76847 228.517 3.5554 228.77 3.39631C229.025 3.23437 229.335 3.15341 229.699 3.15341C230.068 3.15341 230.377 3.23437 230.627 3.39631C230.877 3.5554 231.066 3.76847 231.194 4.03551C231.322 4.29972 231.386 4.59091 231.386 4.90909V5.36932C231.386 5.6875 231.321 5.98011 231.19 6.24716C231.062 6.51136 230.872 6.72443 230.619 6.88636C230.369 7.04545 230.062 7.125 229.699 7.125C229.329 7.125 229.018 7.04545 228.765 6.88636C228.512 6.72443 228.321 6.51136 228.19 6.24716C228.059 5.98011 227.994 5.6875 227.994 5.36932ZM228.863 4.90909V5.36932C228.863 5.63352 228.926 5.87074 229.051 6.08097C229.176 6.28835 229.392 6.39205 229.699 6.39205C229.997 6.39205 230.207 6.28835 230.329 6.08097C230.454 5.87074 230.517 5.63352 230.517 5.36932V4.90909C230.517 4.64489 230.457 4.40909 230.338 4.2017C230.218 3.99148 230.005 3.88636 229.699 3.88636C229.4 3.88636 229.186 3.99148 229.055 4.2017C228.927 4.40909 228.863 4.64489 228.863 4.90909ZM228.318 12L234.318 3.27273H235.289L229.289 12H228.318Z" fill="#757575"/>
</svg>
