<svg width="236" height="16" viewBox="0 0 236 16" fill="none" xmlns="http://www.w3.org/2000/svg">
<rect width="200" height="16" fill="#EDEDED"/>
<path d="M0 0H141V16H0V0Z" fill="#01959F"/>
<path d="M213.176 12L217.08 4.27841V4.21023H212.58V3.27273H218.17V4.26136L214.284 12H213.176ZM222.418 12.1193C221.776 12.1193 221.229 11.9446 220.777 11.5952C220.326 11.2429 219.98 10.733 219.742 10.0653C219.503 9.39489 219.384 8.58523 219.384 7.63636C219.384 6.69318 219.503 5.88778 219.742 5.22017C219.983 4.54972 220.33 4.03835 220.782 3.68608C221.236 3.33097 221.782 3.15341 222.418 3.15341C223.054 3.15341 223.598 3.33097 224.05 3.68608C224.505 4.03835 224.851 4.54972 225.09 5.22017C225.331 5.88778 225.452 6.69318 225.452 7.63636C225.452 8.58523 225.333 9.39489 225.094 10.0653C224.855 10.733 224.51 11.2429 224.059 11.5952C223.607 11.9446 223.06 12.1193 222.418 12.1193ZM222.418 11.1818C223.054 11.1818 223.549 10.875 223.901 10.2614C224.253 9.64773 224.429 8.77273 224.429 7.63636C224.429 6.88068 224.348 6.23722 224.186 5.70597C224.027 5.17472 223.797 4.76989 223.496 4.49148C223.198 4.21307 222.838 4.07386 222.418 4.07386C221.787 4.07386 221.294 4.38494 220.939 5.0071C220.584 5.62642 220.407 6.50284 220.407 7.63636C220.407 8.39205 220.486 9.03409 220.645 9.5625C220.804 10.0909 221.033 10.4929 221.331 10.7685C221.632 11.044 221.995 11.1818 222.418 11.1818ZM231.52 10.3636V9.90341C231.52 9.58523 231.586 9.29403 231.716 9.02983C231.85 8.76278 232.043 8.54972 232.296 8.39062C232.551 8.22869 232.861 8.14773 233.225 8.14773C233.594 8.14773 233.904 8.22869 234.154 8.39062C234.404 8.54972 234.593 8.76278 234.721 9.02983C234.848 9.29403 234.912 9.58523 234.912 9.90341V10.3636C234.912 10.6818 234.847 10.9744 234.716 11.2415C234.588 11.5057 234.398 11.7187 234.145 11.8807C233.895 12.0398 233.588 12.1193 233.225 12.1193C232.855 12.1193 232.544 12.0398 232.292 11.8807C232.039 11.7187 231.847 11.5057 231.716 11.2415C231.586 10.9744 231.52 10.6818 231.52 10.3636ZM232.39 9.90341V10.3636C232.39 10.6278 232.452 10.8651 232.577 11.0753C232.702 11.2827 232.918 11.3864 233.225 11.3864C233.523 11.3864 233.733 11.2827 233.855 11.0753C233.98 10.8651 234.043 10.6278 234.043 10.3636V9.90341C234.043 9.6392 233.983 9.40341 233.864 9.19602C233.745 8.9858 233.532 8.88068 233.225 8.88068C232.926 8.88068 232.712 8.9858 232.581 9.19602C232.453 9.40341 232.39 9.6392 232.39 9.90341ZM227.174 5.36932V4.90909C227.174 4.59091 227.239 4.29972 227.37 4.03551C227.503 3.76847 227.696 3.5554 227.949 3.39631C228.205 3.23437 228.515 3.15341 228.878 3.15341C229.248 3.15341 229.557 3.23437 229.807 3.39631C230.057 3.5554 230.246 3.76847 230.374 4.03551C230.502 4.29972 230.566 4.59091 230.566 4.90909V5.36932C230.566 5.6875 230.5 5.98011 230.37 6.24716C230.242 6.51136 230.051 6.72443 229.799 6.88636C229.549 7.04545 229.242 7.125 228.878 7.125C228.509 7.125 228.198 7.04545 227.945 6.88636C227.692 6.72443 227.5 6.51136 227.37 6.24716C227.239 5.98011 227.174 5.6875 227.174 5.36932ZM228.043 4.90909V5.36932C228.043 5.63352 228.105 5.87074 228.23 6.08097C228.355 6.28835 228.571 6.39205 228.878 6.39205C229.176 6.39205 229.387 6.28835 229.509 6.08097C229.634 5.87074 229.696 5.63352 229.696 5.36932V4.90909C229.696 4.64489 229.637 4.40909 229.517 4.2017C229.398 3.99148 229.185 3.88636 228.878 3.88636C228.58 3.88636 228.365 3.99148 228.235 4.2017C228.107 4.40909 228.043 4.64489 228.043 4.90909ZM227.498 12L233.498 3.27273H234.469L228.469 12H227.498Z" fill="#757575"/>
</svg>
