<svg width="237" height="16" viewBox="0 0 237 16" fill="none" xmlns="http://www.w3.org/2000/svg">
<rect width="200" height="16" fill="#EDEDED"/>
<path d="M0 0H161V16H0V0Z" fill="#01959F"/>
<path d="M215.699 12.1193C215.114 12.1193 214.597 12.0156 214.148 11.8082C213.702 11.598 213.354 11.3097 213.104 10.9432C212.854 10.5739 212.73 10.1534 212.733 9.68182C212.73 9.3125 212.803 8.97159 212.95 8.65909C213.098 8.34375 213.3 8.08097 213.555 7.87074C213.814 7.65767 214.102 7.52273 214.42 7.46591V7.41477C214.003 7.30682 213.67 7.07244 213.423 6.71165C213.176 6.34801 213.054 5.93466 213.057 5.47159C213.054 5.02841 213.166 4.6321 213.393 4.28267C213.621 3.93324 213.933 3.65767 214.331 3.45597C214.732 3.25426 215.188 3.15341 215.699 3.15341C216.205 3.15341 216.656 3.25426 217.054 3.45597C217.452 3.65767 217.764 3.93324 217.991 4.28267C218.222 4.6321 218.338 5.02841 218.341 5.47159C218.338 5.93466 218.212 6.34801 217.962 6.71165C217.714 7.07244 217.386 7.30682 216.977 7.41477V7.46591C217.293 7.52273 217.577 7.65767 217.83 7.87074C218.082 8.08097 218.284 8.34375 218.435 8.65909C218.585 8.97159 218.662 9.3125 218.665 9.68182C218.662 10.1534 218.534 10.5739 218.281 10.9432C218.031 11.3097 217.683 11.598 217.237 11.8082C216.794 12.0156 216.281 12.1193 215.699 12.1193ZM215.699 11.1818C216.094 11.1818 216.435 11.1179 216.722 10.9901C217.009 10.8622 217.23 10.6818 217.386 10.4489C217.543 10.2159 217.622 9.94318 217.625 9.63068C217.622 9.30114 217.537 9.00994 217.369 8.7571C217.202 8.50426 216.973 8.3054 216.683 8.16051C216.396 8.01562 216.068 7.94318 215.699 7.94318C215.327 7.94318 214.994 8.01562 214.702 8.16051C214.412 8.3054 214.183 8.50426 214.016 8.7571C213.851 9.00994 213.77 9.30114 213.773 9.63068C213.77 9.94318 213.845 10.2159 213.999 10.4489C214.155 10.6818 214.378 10.8622 214.668 10.9901C214.957 11.1179 215.301 11.1818 215.699 11.1818ZM215.699 7.03977C216.011 7.03977 216.288 6.97727 216.53 6.85227C216.774 6.72727 216.966 6.55256 217.105 6.32812C217.244 6.10369 217.315 5.84091 217.318 5.53977C217.315 5.24432 217.246 4.98722 217.109 4.76847C216.973 4.54687 216.784 4.37642 216.543 4.2571C216.301 4.13494 216.02 4.07386 215.699 4.07386C215.372 4.07386 215.087 4.13494 214.842 4.2571C214.598 4.37642 214.409 4.54687 214.276 4.76847C214.142 4.98722 214.077 5.24432 214.08 5.53977C214.077 5.84091 214.143 6.10369 214.28 6.32812C214.419 6.55256 214.611 6.72727 214.855 6.85227C215.099 6.97727 215.381 7.03977 215.699 7.03977ZM223.145 12.1193C222.502 12.1193 221.956 11.9446 221.504 11.5952C221.052 11.2429 220.707 10.733 220.468 10.0653C220.23 9.39489 220.11 8.58523 220.11 7.63636C220.11 6.69318 220.23 5.88778 220.468 5.22017C220.71 4.54972 221.056 4.03835 221.508 3.68608C221.963 3.33097 222.508 3.15341 223.145 3.15341C223.781 3.15341 224.325 3.33097 224.777 3.68608C225.231 4.03835 225.578 4.54972 225.816 5.22017C226.058 5.88778 226.179 6.69318 226.179 7.63636C226.179 8.58523 226.059 9.39489 225.821 10.0653C225.582 10.733 225.237 11.2429 224.785 11.5952C224.333 11.9446 223.787 12.1193 223.145 12.1193ZM223.145 11.1818C223.781 11.1818 224.275 10.875 224.627 10.2614C224.98 9.64773 225.156 8.77273 225.156 7.63636C225.156 6.88068 225.075 6.23722 224.913 5.70597C224.754 5.17472 224.524 4.76989 224.223 4.49148C223.924 4.21307 223.565 4.07386 223.145 4.07386C222.514 4.07386 222.021 4.38494 221.666 5.0071C221.311 5.62642 221.133 6.50284 221.133 7.63636C221.133 8.39205 221.213 9.03409 221.372 9.5625C221.531 10.0909 221.76 10.4929 222.058 10.7685C222.359 11.044 222.721 11.1818 223.145 11.1818ZM232.247 10.3636V9.90341C232.247 9.58523 232.312 9.29403 232.443 9.02983C232.576 8.76278 232.77 8.54972 233.022 8.39062C233.278 8.22869 233.588 8.14773 233.951 8.14773C234.321 8.14773 234.63 8.22869 234.88 8.39062C235.13 8.54972 235.319 8.76278 235.447 9.02983C235.575 9.29403 235.639 9.58523 235.639 9.90341V10.3636C235.639 10.6818 235.574 10.9744 235.443 11.2415C235.315 11.5057 235.125 11.7187 234.872 11.8807C234.622 12.0398 234.315 12.1193 233.951 12.1193C233.582 12.1193 233.271 12.0398 233.018 11.8807C232.765 11.7187 232.574 11.5057 232.443 11.2415C232.312 10.9744 232.247 10.6818 232.247 10.3636ZM233.116 9.90341V10.3636C233.116 10.6278 233.179 10.8651 233.304 11.0753C233.429 11.2827 233.645 11.3864 233.951 11.3864C234.25 11.3864 234.46 11.2827 234.582 11.0753C234.707 10.8651 234.77 10.6278 234.77 10.3636V9.90341C234.77 9.6392 234.71 9.40341 234.591 9.19602C234.471 8.9858 234.258 8.88068 233.951 8.88068C233.653 8.88068 233.439 8.9858 233.308 9.19602C233.18 9.40341 233.116 9.6392 233.116 9.90341ZM227.9 5.36932V4.90909C227.9 4.59091 227.966 4.29972 228.096 4.03551C228.23 3.76847 228.423 3.5554 228.676 3.39631C228.931 3.23437 229.241 3.15341 229.605 3.15341C229.974 3.15341 230.284 3.23437 230.534 3.39631C230.784 3.5554 230.973 3.76847 231.1 4.03551C231.228 4.29972 231.292 4.59091 231.292 4.90909V5.36932C231.292 5.6875 231.227 5.98011 231.096 6.24716C230.968 6.51136 230.778 6.72443 230.525 6.88636C230.275 7.04545 229.968 7.125 229.605 7.125C229.235 7.125 228.924 7.04545 228.672 6.88636C228.419 6.72443 228.227 6.51136 228.096 6.24716C227.966 5.98011 227.9 5.6875 227.9 5.36932ZM228.77 4.90909V5.36932C228.77 5.63352 228.832 5.87074 228.957 6.08097C229.082 6.28835 229.298 6.39205 229.605 6.39205C229.903 6.39205 230.113 6.28835 230.235 6.08097C230.36 5.87074 230.423 5.63352 230.423 5.36932V4.90909C230.423 4.64489 230.363 4.40909 230.244 4.2017C230.125 3.99148 229.912 3.88636 229.605 3.88636C229.306 3.88636 229.092 3.99148 228.961 4.2017C228.833 4.40909 228.77 4.64489 228.77 4.90909ZM228.224 12L234.224 3.27273H235.196L229.196 12H228.224Z" fill="#757575"/>
</svg>
