<svg width="237" height="16" viewBox="0 0 237 16" fill="none" xmlns="http://www.w3.org/2000/svg">
<rect width="200" height="16" fill="#EDEDED"/>
<path d="M0 0H101V16H0V0Z" fill="#01959F"/>
<path d="M215.631 12.1193C215.131 12.1193 214.68 12.0199 214.28 11.821C213.879 11.6222 213.558 11.3494 213.317 11.0028C213.075 10.6562 212.943 10.2614 212.92 9.81818H213.943C213.983 10.2131 214.162 10.5398 214.48 10.7983C214.801 11.054 215.185 11.1818 215.631 11.1818C215.989 11.1818 216.307 11.098 216.585 10.9304C216.866 10.7628 217.087 10.5327 217.246 10.2401C217.408 9.9446 217.489 9.6108 217.489 9.23864C217.489 8.85795 217.405 8.51847 217.237 8.22017C217.072 7.91903 216.845 7.68182 216.555 7.50852C216.266 7.33523 215.935 7.24716 215.562 7.24432C215.295 7.24148 215.021 7.28267 214.74 7.3679C214.459 7.45028 214.227 7.55682 214.045 7.6875L213.057 7.56818L213.585 3.27273H218.119V4.21023H214.472L214.165 6.78409H214.216C214.395 6.64205 214.619 6.52415 214.889 6.4304C215.159 6.33665 215.44 6.28977 215.733 6.28977C216.267 6.28977 216.743 6.41761 217.161 6.6733C217.581 6.92614 217.911 7.27273 218.149 7.71307C218.391 8.15341 218.511 8.65625 218.511 9.22159C218.511 9.77841 218.386 10.2756 218.136 10.7131C217.889 11.1477 217.548 11.4915 217.114 11.7443C216.679 11.9943 216.185 12.1193 215.631 12.1193ZM223.051 12.1193C222.409 12.1193 221.862 11.9446 221.41 11.5952C220.958 11.2429 220.613 10.733 220.375 10.0653C220.136 9.39489 220.017 8.58523 220.017 7.63636C220.017 6.69318 220.136 5.88778 220.375 5.22017C220.616 4.54972 220.963 4.03835 221.414 3.68608C221.869 3.33097 222.414 3.15341 223.051 3.15341C223.687 3.15341 224.231 3.33097 224.683 3.68608C225.137 4.03835 225.484 4.54972 225.723 5.22017C225.964 5.88778 226.085 6.69318 226.085 7.63636C226.085 8.58523 225.966 9.39489 225.727 10.0653C225.488 10.733 225.143 11.2429 224.691 11.5952C224.24 11.9446 223.693 12.1193 223.051 12.1193ZM223.051 11.1818C223.687 11.1818 224.181 10.875 224.534 10.2614C224.886 9.64773 225.062 8.77273 225.062 7.63636C225.062 6.88068 224.981 6.23722 224.819 5.70597C224.66 5.17472 224.43 4.76989 224.129 4.49148C223.831 4.21307 223.471 4.07386 223.051 4.07386C222.42 4.07386 221.927 4.38494 221.572 5.0071C221.217 5.62642 221.039 6.50284 221.039 7.63636C221.039 8.39205 221.119 9.03409 221.278 9.5625C221.437 10.0909 221.666 10.4929 221.964 10.7685C222.265 11.044 222.627 11.1818 223.051 11.1818ZM232.153 10.3636V9.90341C232.153 9.58523 232.218 9.29403 232.349 9.02983C232.483 8.76278 232.676 8.54972 232.929 8.39062C233.184 8.22869 233.494 8.14773 233.858 8.14773C234.227 8.14773 234.537 8.22869 234.787 8.39062C235.037 8.54972 235.225 8.76278 235.353 9.02983C235.481 9.29403 235.545 9.58523 235.545 9.90341V10.3636C235.545 10.6818 235.48 10.9744 235.349 11.2415C235.221 11.5057 235.031 11.7187 234.778 11.8807C234.528 12.0398 234.221 12.1193 233.858 12.1193C233.488 12.1193 233.177 12.0398 232.924 11.8807C232.672 11.7187 232.48 11.5057 232.349 11.2415C232.218 10.9744 232.153 10.6818 232.153 10.3636ZM233.022 9.90341V10.3636C233.022 10.6278 233.085 10.8651 233.21 11.0753C233.335 11.2827 233.551 11.3864 233.858 11.3864C234.156 11.3864 234.366 11.2827 234.488 11.0753C234.613 10.8651 234.676 10.6278 234.676 10.3636V9.90341C234.676 9.6392 234.616 9.40341 234.497 9.19602C234.377 8.9858 234.164 8.88068 233.858 8.88068C233.559 8.88068 233.345 8.9858 233.214 9.19602C233.086 9.40341 233.022 9.6392 233.022 9.90341ZM227.806 5.36932V4.90909C227.806 4.59091 227.872 4.29972 228.002 4.03551C228.136 3.76847 228.329 3.5554 228.582 3.39631C228.838 3.23437 229.147 3.15341 229.511 3.15341C229.88 3.15341 230.19 3.23437 230.44 3.39631C230.69 3.5554 230.879 3.76847 231.007 4.03551C231.135 4.29972 231.199 4.59091 231.199 4.90909V5.36932C231.199 5.6875 231.133 5.98011 231.002 6.24716C230.875 6.51136 230.684 6.72443 230.431 6.88636C230.181 7.04545 229.875 7.125 229.511 7.125C229.142 7.125 228.831 7.04545 228.578 6.88636C228.325 6.72443 228.133 6.51136 228.002 6.24716C227.872 5.98011 227.806 5.6875 227.806 5.36932ZM228.676 4.90909V5.36932C228.676 5.63352 228.738 5.87074 228.863 6.08097C228.988 6.28835 229.204 6.39205 229.511 6.39205C229.809 6.39205 230.02 6.28835 230.142 6.08097C230.267 5.87074 230.329 5.63352 230.329 5.36932V4.90909C230.329 4.64489 230.27 4.40909 230.15 4.2017C230.031 3.99148 229.818 3.88636 229.511 3.88636C229.213 3.88636 228.998 3.99148 228.868 4.2017C228.74 4.40909 228.676 4.64489 228.676 4.90909ZM228.13 12L234.13 3.27273H235.102L229.102 12H228.13Z" fill="#757575"/>
</svg>
