<svg width="237" height="16" viewBox="0 0 237 16" fill="none" xmlns="http://www.w3.org/2000/svg">
<rect width="200" height="16" fill="#EDEDED"/>
<path d="M0 0H181V16H0V0Z" fill="#01959F"/>
<path d="M215.682 3.15341C216.04 3.15625 216.398 3.22443 216.756 3.35795C217.114 3.49148 217.44 3.71307 217.736 4.02273C218.031 4.32955 218.268 4.74858 218.447 5.27983C218.626 5.81108 218.716 6.47727 218.716 7.27841C218.716 8.05398 218.642 8.7429 218.494 9.34517C218.349 9.9446 218.139 10.4503 217.864 10.8622C217.591 11.2741 217.259 11.5866 216.866 11.7997C216.477 12.0128 216.037 12.1193 215.545 12.1193C215.057 12.1193 214.621 12.0227 214.237 11.8295C213.857 11.6335 213.544 11.3622 213.3 11.0156C213.058 10.6662 212.903 10.2614 212.835 9.80114H213.875C213.969 10.2017 214.155 10.5327 214.433 10.794C214.714 11.0526 215.085 11.1818 215.545 11.1818C216.219 11.1818 216.75 10.8878 217.139 10.2997C217.531 9.71165 217.727 8.88068 217.727 7.80682H217.659C217.5 8.04545 217.311 8.25142 217.092 8.42472C216.874 8.59801 216.631 8.73153 216.364 8.82528C216.097 8.91903 215.813 8.96591 215.511 8.96591C215.011 8.96591 214.553 8.84233 214.135 8.59517C213.72 8.34517 213.388 8.00284 213.138 7.56818C212.891 7.13068 212.767 6.63068 212.767 6.06818C212.767 5.53409 212.886 5.04545 213.125 4.60227C213.366 4.15625 213.705 3.80114 214.139 3.53693C214.577 3.27273 215.091 3.14489 215.682 3.15341ZM215.682 4.09091C215.324 4.09091 215.001 4.1804 214.714 4.35938C214.43 4.53551 214.205 4.77415 214.037 5.07528C213.872 5.37358 213.79 5.70455 213.79 6.06818C213.79 6.43182 213.869 6.76278 214.028 7.06108C214.19 7.35653 214.411 7.59233 214.689 7.76847C214.97 7.94176 215.29 8.02841 215.648 8.02841C215.918 8.02841 216.169 7.97585 216.402 7.87074C216.635 7.76278 216.838 7.61648 217.011 7.43182C217.188 7.24432 217.325 7.03267 217.425 6.79688C217.524 6.55824 217.574 6.30966 217.574 6.05114C217.574 5.71023 217.491 5.39062 217.327 5.09233C217.165 4.79403 216.94 4.55256 216.653 4.3679C216.369 4.18324 216.045 4.09091 215.682 4.09091ZM223.238 12.1193C222.596 12.1193 222.049 11.9446 221.598 11.5952C221.146 11.2429 220.801 10.733 220.562 10.0653C220.324 9.39489 220.204 8.58523 220.204 7.63636C220.204 6.69318 220.324 5.88778 220.562 5.22017C220.804 4.54972 221.15 4.03835 221.602 3.68608C222.056 3.33097 222.602 3.15341 223.238 3.15341C223.875 3.15341 224.419 3.33097 224.87 3.68608C225.325 4.03835 225.672 4.54972 225.91 5.22017C226.152 5.88778 226.272 6.69318 226.272 7.63636C226.272 8.58523 226.153 9.39489 225.914 10.0653C225.676 10.733 225.331 11.2429 224.879 11.5952C224.427 11.9446 223.88 12.1193 223.238 12.1193ZM223.238 11.1818C223.875 11.1818 224.369 10.875 224.721 10.2614C225.074 9.64773 225.25 8.77273 225.25 7.63636C225.25 6.88068 225.169 6.23722 225.007 5.70597C224.848 5.17472 224.618 4.76989 224.316 4.49148C224.018 4.21307 223.659 4.07386 223.238 4.07386C222.608 4.07386 222.115 4.38494 221.76 5.0071C221.404 5.62642 221.227 6.50284 221.227 7.63636C221.227 8.39205 221.306 9.03409 221.466 9.5625C221.625 10.0909 221.853 10.4929 222.152 10.7685C222.453 11.044 222.815 11.1818 223.238 11.1818ZM232.341 10.3636V9.90341C232.341 9.58523 232.406 9.29403 232.537 9.02983C232.67 8.76278 232.863 8.54972 233.116 8.39062C233.372 8.22869 233.681 8.14773 234.045 8.14773C234.414 8.14773 234.724 8.22869 234.974 8.39062C235.224 8.54972 235.413 8.76278 235.541 9.02983C235.669 9.29403 235.733 9.58523 235.733 9.90341V10.3636C235.733 10.6818 235.667 10.9744 235.537 11.2415C235.409 11.5057 235.218 11.7187 234.966 11.8807C234.716 12.0398 234.409 12.1193 234.045 12.1193C233.676 12.1193 233.365 12.0398 233.112 11.8807C232.859 11.7187 232.667 11.5057 232.537 11.2415C232.406 10.9744 232.341 10.6818 232.341 10.3636ZM233.21 9.90341V10.3636C233.21 10.6278 233.272 10.8651 233.397 11.0753C233.522 11.2827 233.738 11.3864 234.045 11.3864C234.343 11.3864 234.554 11.2827 234.676 11.0753C234.801 10.8651 234.863 10.6278 234.863 10.3636V9.90341C234.863 9.6392 234.804 9.40341 234.684 9.19602C234.565 8.9858 234.352 8.88068 234.045 8.88068C233.747 8.88068 233.532 8.9858 233.402 9.19602C233.274 9.40341 233.21 9.6392 233.21 9.90341ZM227.994 5.36932V4.90909C227.994 4.59091 228.059 4.29972 228.19 4.03551C228.324 3.76847 228.517 3.5554 228.77 3.39631C229.025 3.23437 229.335 3.15341 229.699 3.15341C230.068 3.15341 230.377 3.23437 230.627 3.39631C230.877 3.5554 231.066 3.76847 231.194 4.03551C231.322 4.29972 231.386 4.59091 231.386 4.90909V5.36932C231.386 5.6875 231.321 5.98011 231.19 6.24716C231.062 6.51136 230.872 6.72443 230.619 6.88636C230.369 7.04545 230.062 7.125 229.699 7.125C229.329 7.125 229.018 7.04545 228.765 6.88636C228.512 6.72443 228.321 6.51136 228.19 6.24716C228.059 5.98011 227.994 5.6875 227.994 5.36932ZM228.863 4.90909V5.36932C228.863 5.63352 228.926 5.87074 229.051 6.08097C229.176 6.28835 229.392 6.39205 229.699 6.39205C229.997 6.39205 230.207 6.28835 230.329 6.08097C230.454 5.87074 230.517 5.63352 230.517 5.36932V4.90909C230.517 4.64489 230.457 4.40909 230.338 4.2017C230.218 3.99148 230.005 3.88636 229.699 3.88636C229.4 3.88636 229.186 3.99148 229.055 4.2017C228.927 4.40909 228.863 4.64489 228.863 4.90909ZM228.318 12L234.318 3.27273H235.289L229.289 12H228.318Z" fill="#757575"/>
</svg>
