<svg width="237" height="16" viewBox="0 0 237 16" fill="none" xmlns="http://www.w3.org/2000/svg">
<rect width="200" height="16" fill="#EDEDED"/>
<path d="M0 0H41V16H0V0Z" fill="#01959F"/>
<path d="M212.903 12V11.233L215.784 8.07955C216.122 7.71023 216.401 7.3892 216.619 7.11648C216.838 6.84091 217 6.58239 217.105 6.34091C217.213 6.09659 217.267 5.84091 217.267 5.57386C217.267 5.26705 217.193 5.00142 217.045 4.77699C216.901 4.55256 216.702 4.37926 216.449 4.2571C216.196 4.13494 215.912 4.07386 215.597 4.07386C215.261 4.07386 214.969 4.14347 214.719 4.28267C214.472 4.41903 214.28 4.6108 214.143 4.85795C214.01 5.10511 213.943 5.39489 213.943 5.72727H212.938C212.938 5.21591 213.055 4.76705 213.291 4.38068C213.527 3.99432 213.848 3.69318 214.254 3.47727C214.663 3.26136 215.122 3.15341 215.631 3.15341C216.142 3.15341 216.595 3.26136 216.99 3.47727C217.385 3.69318 217.695 3.98437 217.919 4.35085C218.143 4.71733 218.256 5.125 218.256 5.57386C218.256 5.89489 218.197 6.20881 218.081 6.51562C217.967 6.8196 217.768 7.15909 217.484 7.53409C217.203 7.90625 216.812 8.3608 216.312 8.89773L214.352 10.9943V11.0625H218.409V12H212.903ZM223.016 12.1193C222.374 12.1193 221.827 11.9446 221.375 11.5952C220.923 11.2429 220.578 10.733 220.339 10.0653C220.101 9.39489 219.982 8.58523 219.982 7.63636C219.982 6.69318 220.101 5.88778 220.339 5.22017C220.581 4.54972 220.928 4.03835 221.379 3.68608C221.834 3.33097 222.379 3.15341 223.016 3.15341C223.652 3.15341 224.196 3.33097 224.648 3.68608C225.102 4.03835 225.449 4.54972 225.688 5.22017C225.929 5.88778 226.05 6.69318 226.05 7.63636C226.05 8.58523 225.93 9.39489 225.692 10.0653C225.453 10.733 225.108 11.2429 224.656 11.5952C224.205 11.9446 223.658 12.1193 223.016 12.1193ZM223.016 11.1818C223.652 11.1818 224.146 10.875 224.499 10.2614C224.851 9.64773 225.027 8.77273 225.027 7.63636C225.027 6.88068 224.946 6.23722 224.784 5.70597C224.625 5.17472 224.395 4.76989 224.094 4.49148C223.795 4.21307 223.436 4.07386 223.016 4.07386C222.385 4.07386 221.892 4.38494 221.537 5.0071C221.182 5.62642 221.004 6.50284 221.004 7.63636C221.004 8.39205 221.084 9.03409 221.243 9.5625C221.402 10.0909 221.631 10.4929 221.929 10.7685C222.23 11.044 222.592 11.1818 223.016 11.1818ZM232.118 10.3636V9.90341C232.118 9.58523 232.183 9.29403 232.314 9.02983C232.447 8.76278 232.641 8.54972 232.893 8.39062C233.149 8.22869 233.459 8.14773 233.822 8.14773C234.192 8.14773 234.501 8.22869 234.751 8.39062C235.001 8.54972 235.19 8.76278 235.318 9.02983C235.446 9.29403 235.51 9.58523 235.51 9.90341V10.3636C235.51 10.6818 235.445 10.9744 235.314 11.2415C235.186 11.5057 234.996 11.7187 234.743 11.8807C234.493 12.0398 234.186 12.1193 233.822 12.1193C233.453 12.1193 233.142 12.0398 232.889 11.8807C232.636 11.7187 232.445 11.5057 232.314 11.2415C232.183 10.9744 232.118 10.6818 232.118 10.3636ZM232.987 9.90341V10.3636C232.987 10.6278 233.05 10.8651 233.175 11.0753C233.3 11.2827 233.516 11.3864 233.822 11.3864C234.121 11.3864 234.331 11.2827 234.453 11.0753C234.578 10.8651 234.641 10.6278 234.641 10.3636V9.90341C234.641 9.6392 234.581 9.40341 234.462 9.19602C234.342 8.9858 234.129 8.88068 233.822 8.88068C233.524 8.88068 233.31 8.9858 233.179 9.19602C233.051 9.40341 232.987 9.6392 232.987 9.90341ZM227.771 5.36932V4.90909C227.771 4.59091 227.837 4.29972 227.967 4.03551C228.101 3.76847 228.294 3.5554 228.547 3.39631C228.803 3.23437 229.112 3.15341 229.476 3.15341C229.845 3.15341 230.155 3.23437 230.405 3.39631C230.655 3.5554 230.844 3.76847 230.972 4.03551C231.099 4.29972 231.163 4.59091 231.163 4.90909V5.36932C231.163 5.6875 231.098 5.98011 230.967 6.24716C230.839 6.51136 230.649 6.72443 230.396 6.88636C230.146 7.04545 229.839 7.125 229.476 7.125C229.107 7.125 228.795 7.04545 228.543 6.88636C228.29 6.72443 228.098 6.51136 227.967 6.24716C227.837 5.98011 227.771 5.6875 227.771 5.36932ZM228.641 4.90909V5.36932C228.641 5.63352 228.703 5.87074 228.828 6.08097C228.953 6.28835 229.169 6.39205 229.476 6.39205C229.774 6.39205 229.984 6.28835 230.107 6.08097C230.232 5.87074 230.294 5.63352 230.294 5.36932V4.90909C230.294 4.64489 230.234 4.40909 230.115 4.2017C229.996 3.99148 229.783 3.88636 229.476 3.88636C229.178 3.88636 228.963 3.99148 228.832 4.2017C228.705 4.40909 228.641 4.64489 228.641 4.90909ZM228.095 12L234.095 3.27273H235.067L229.067 12H228.095Z" fill="#757575"/>
</svg>
